# xmcd
# Track frame offsets:
# 150
# 20280
# 36518
# 54884
# 71004
# 83672
# 93061
# 105187
# 115300
# 127550
# 161183
# 164253
# 176285
# 183517
# 190308
# 199321
# 208741
# 219184
# 230378
# 245928
#
# Disc length: 3456 seconds
# Revision: 2
# Processed by: cddbd v1.5.2PL0 Copyright (c) Steve Scherf et al.
# Submitted via: VisiTrax 2.11.2.271 - For more info visit www.synapsa.com
#
DISCID=080d7e14
DTITLE=Slim Dusty - The Man Who Is Australia Disc 3
DYEAR=2000
DGENRE=Australian Country
TTITLE0=The Pub With No Beer
TTITLE1=Ringer From The Top End
TTITLE2=The Lights On The Hill
TTITLE3=Natural High
TTITLE4=Charleville
TTITLE5=Quicksilver
TTITLE6=Why Worry Now
TTITLE7=Truthful Fella
TTITLE8=My Pal Alcohol
TTITLE9=Been A Fool Too Long
TTITLE10=Waltzing Matilda
TTITLE11=When The Rain Tumbles Down In July
TTITLE12=I'm Going Back Again To Yarrawonga
TTITLE13=Natural High (Radio Version For John Laws)
TTITLE14=Santa's Gonna Come In A Mail Coach
TTITLE15=Christmas On The Station
TTITLE16=Santa Looked A Lot Like Daddy (And Daddy looked A Lot Like Him)
TTITLE17=Send Back My Daddy For Christmas
TTITLE18=The Pub With No Beer (Featured In The Slim Dusty Movie)
TTITLE19=When The Rain Tumbles Down In July (Composite Version)
EXTD=From The Dusty Treasure Chest EMI Music Austalia
EXTT0=
EXTT1=
EXTT2=
EXTT3=
EXTT4=
EXTT5=
EXTT6=
EXTT7=
EXTT8=
EXTT9=
EXTT10=
EXTT11=
EXTT12=
EXTT13=
EXTT14=
EXTT15=
EXTT16=
EXTT17=
EXTT18=
EXTT19=
PLAYORDER=
